<?xml version="1.0" encoding="utf-8"?><svg viewBox="0 0 512 512" xmlns="http://www.w3.org/2000/svg" xmlns:xlink="http://www.w3.org/1999/xlink"><style>:root>svg{display:none}:root>svg:target{display:block}</style><svg viewBox="0 0 7.18 8.124" id="Polygon" xmlns="http://www.w3.org/2000/svg"><defs><style>.acls-1{fill:#333;fill-rule:evenodd}</style></defs><path id="aPolygon_2" data-name="Polygon 2" class="acls-1" d="M1252.6 142.5l-7.2 4.05v-8.1z" transform="translate(-1245.41 -138.438)"/></svg><svg id="close" version="1.1" viewBox="0 0 512 512" xml:space="preserve" xmlns="http://www.w3.org/2000/svg"><style>.bst0{fill:#252525;width:20px;height:20px}</style><path class="bst0" d="M284.3 245.1l110.9-110.9c7.8-7.8 7.8-20.5 0-28.3s-20.5-7.8-28.3 0L256 216.8 145.1 105.9c-7.8-7.8-20.5-7.8-28.3 0s-7.8 20.5 0 28.3l110.9 110.9-110.8 110.8c-7.8 7.8-7.8 20.5 0 28.3 3.9 3.9 9 5.9 14.1 5.9s10.2-2 14.1-5.9L256 273.3l110.9 110.9c3.9 3.9 9 5.9 14.1 5.9s10.2-2 14.1-5.9c7.8-7.8 7.8-20.5 0-28.3L284.3 245.1z"/></svg><svg viewBox="0 0 30 30" fill="#252525" id="search" xmlns="http://www.w3.org/2000/svg"><path d="M13 3C7.489 3 3 7.489 3 13s4.489 10 10 10a9.947 9.947 0 006.322-2.264l5.971 5.971a1 1 0 101.414-1.414l-5.97-5.97A9.947 9.947 0 0023 13c0-5.511-4.489-10-10-10zm0 2c4.43 0 8 3.57 8 8s-3.57 8-8 8-8-3.57-8-8 3.57-8 8-8z"/></svg></svg>